<?xml version="1.0" encoding="utf-8"?>
<!-- Generator: Adobe Illustrator 21.0.0, SVG Export Plug-In . SVG Version: 6.00 Build 0)  -->
<svg version="1.1" id="Layer_1" xmlns="http://www.w3.org/2000/svg" xmlns:xlink="http://www.w3.org/1999/xlink" x="0px" y="0px"
	 viewBox="0 0 272 52" style="enable-background:new 0 0 272 52;" xml:space="preserve">
<style type="text/css">
	.st0{fill:#71C5E8;}
	.st1{fill:#542682;}
</style>
<g>
	<path class="st0" d="M49.9,0.4c-0.7,0-1.4,0.3-1.9,0.8L30,19.1c-1.1,1.1-1.1,2.8,0,3.8c1.1,1.1,2.8,1.1,3.8,0L51.8,5
		c1.1-1.1,1.1-2.8,0-3.8C51.3,0.6,50.6,0.4,49.9,0.4z"/>
	<path class="st1" d="M3.2,0.4c-0.3,0-0.7,0.1-1,0.2C1.1,1,0.5,2,0.5,3.1l0,46.7c0,1.1,0.7,2.1,1.7,2.5c1,0.4,2.2,0.2,2.9-0.6l18-18
		c1.1-1.1,1.1-2.8,0-3.8c-1.1-1.1-2.8-1.1-3.8,0L5.9,43.3l0-33.7L48,51.7c1.1,1.1,2.8,1.1,3.8,0c1.1-1.1,1.1-2.8,0-3.8L5.1,1.2
		C4.6,0.6,3.9,0.4,3.2,0.4z"/>
</g>
<g>
	<path class="st1" d="M111.6,40.3c-0.9,0-1.5-0.7-1.5-1.6V11c0-0.9,0.7-1.6,1.5-1.6c0.9,0,1.6,0.7,1.6,1.6v27.8
		C113.2,39.6,112.5,40.3,111.6,40.3z"/>
	<path class="st1" d="M196.4,40.3c-0.9,0-1.5-0.7-1.5-1.6V11c0-0.9,0.7-1.6,1.5-1.6c0.9,0,1.6,0.7,1.6,1.6v27.8
		C198,39.6,197.3,40.3,196.4,40.3z"/>
	<path class="st1" d="M157.8,40.3c-0.9,0-1.6-0.7-1.6-1.6V11c0-0.9,0.7-1.6,1.6-1.6c0.9,0,1.6,0.7,1.6,1.6v27.8
		C159.4,39.6,158.7,40.3,157.8,40.3z"/>
	<path class="st1" d="M182.5,40.3c-0.9,0-1.6-0.7-1.6-1.6V11c0-0.9,0.7-1.6,1.6-1.6c0.9,0,1.5,0.7,1.5,1.6v27.8
		C184.1,39.6,183.4,40.3,182.5,40.3z"/>
	<path class="st1" d="M76.2,40.3c-0.2,0-0.4,0-0.5-0.1c-0.6-0.2-1-0.8-1-1.5V11c0-0.9,0.7-1.6,1.5-1.6c0.9,0,1.6,0.7,1.6,1.6v23.5
		L98.1,10c0.5-0.7,1.5-0.7,2.2-0.2c0.7,0.5,0.7,1.5,0.2,2.2L77.4,39.7C77.1,40.1,76.6,40.3,76.2,40.3z"/>
	<path class="st1" d="M99.3,40.3c-0.5,0-1-0.2-1.3-0.7l-7.7-10.8c-0.5-0.7-0.3-1.7,0.4-2.2c0.7-0.5,1.7-0.3,2.2,0.4l7.7,10.8
		c0.5,0.7,0.3,1.7-0.4,2.2C99.9,40.2,99.6,40.3,99.3,40.3z"/>
	<path class="st1" d="M247.3,40.3c-0.2,0-0.4,0-0.5-0.1c-0.6-0.2-1-0.8-1-1.5V11c0-0.9,0.7-1.6,1.6-1.6c0.9,0,1.5,0.7,1.5,1.6v23.5
		L269.2,10c0.5-0.7,1.5-0.7,2.2-0.2c0.7,0.5,0.7,1.5,0.2,2.2l-23.1,27.8C248.2,40.1,247.8,40.3,247.3,40.3z"/>
	<path class="st1" d="M270.4,40.3c-0.5,0-1-0.2-1.3-0.7l-7.7-10.8c-0.5-0.7-0.3-1.7,0.4-2.2c0.7-0.5,1.7-0.3,2.2,0.4l7.7,10.8
		c0.5,0.7,0.3,1.7-0.4,2.2C271.1,40.2,270.8,40.3,270.4,40.3z"/>
	<path class="st1" d="M233.4,40.3c-0.4,0-0.9-0.2-1.2-0.6l-20.4-24.5l0,23.5c0,0.9-0.7,1.6-1.6,1.6c-0.9,0-1.6-0.7-1.6-1.6l0-27.8
		c0-0.7,0.4-1.2,1-1.5c0.6-0.2,1.3,0,1.7,0.5l23.1,27.8c0.5,0.7,0.5,1.6-0.2,2.2C234.1,40.2,233.8,40.3,233.4,40.3z"/>
	<path class="st1" d="M233.4,33.3c-0.9,0-1.5-0.7-1.5-1.6V11c0-0.9,0.7-1.6,1.5-1.6s1.6,0.7,1.6,1.6v20.7
		C235,32.6,234.3,33.3,233.4,33.3z"/>
	<path class="st1" d="M123.8,24c-0.1,0-0.2,0-0.3,0c-0.8-0.1-1.4-0.9-1.3-1.8c0.5-3.2,2.1-6.2,4.4-8.5c3-3,6.9-4.6,11.1-4.6
		c3.8,0,7.4,1.3,10.3,3.8c0.6,0.6,0.7,1.5,0.2,2.2c-0.6,0.7-1.5,0.7-2.2,0.2c-2.3-2-5.2-3.1-8.2-3.1c-3.4,0-6.6,1.3-9,3.7
		c-1.9,1.9-3.1,4.2-3.5,6.8C125.2,23.5,124.6,24,123.8,24z"/>
	<path class="st1" d="M137.8,40.6c-4.2,0-8.2-1.6-11.1-4.6c-2.3-2.3-3.9-5.3-4.4-8.5c-0.1-0.8,0.4-1.6,1.3-1.8
		c0.8-0.1,1.6,0.4,1.8,1.3c0.4,2.6,1.7,5,3.5,6.8c2.4,2.4,5.6,3.7,9,3.7c3,0,5.9-1.1,8.2-3c0.7-0.6,1.6-0.5,2.2,0.2
		c0.6,0.7,0.5,1.6-0.2,2.2C145.2,39.3,141.6,40.6,137.8,40.6z"/>
	<path class="st1" d="M177.6,26.4h-14.8c-0.9,0-1.6-0.7-1.6-1.6s0.7-1.6,1.6-1.6h14.8c0.9,0,1.5,0.7,1.5,1.6S178.4,26.4,177.6,26.4z
		"/>
</g>
</svg>
